<?xml version="1.0" standalone="no"?><!DOCTYPE svg PUBLIC "-//W3C//DTD SVG 1.1//EN" "http://www.w3.org/Graphics/SVG/1.1/DTD/svg11.dtd" ><svg xmlns="http://www.w3.org/2000/svg"><metadata></metadata><defs><font id="Apple Computer Monaco Regular" horiz-adv-x="1229"><font-face font-family="Monaco" font-weight="400" font-stretch="normal" units-per-em="2048" panose-1="2 11 5 9 3 4 4 4 2 4" ascent="2048" descent="-512" x-height="4" bbox="2 -466 1228 1645" underline-thickness="102" underline-position="-204" unicode-range="U+0022-00bb" /><missing-glyph horiz-adv-x="1229" d="M877 0 L147 0 L147 1552 L877 1552 L877 0 ZM727 1402 L297 1402 L297 150 L727 150 L727 1402 Z" /><glyph glyph-name="quotedbl" unicode="&quot;" d="M465 1055 L337 1055 L273 1614 L522 1614 L465 1055 ZM896 1055 L769 1055 L712 1614 L956 1614 L896 1055 Z" /><glyph glyph-name="ampersand" unicode="&amp;" d="M881 130 Q782 26 685.5 -10.5 Q589 -47 477 -47 Q263 -47 132.5 74 Q2 195 2 383 Q2 646 276 874 Q194 977 152.5 1066.5 Q111 1156 111 1233 Q111 1326 160 1414 Q209 1502 295 1550 Q381 1598 485 1598 Q623 1598 716 1524 Q809 1450 809 1312 Q809 1211 752.5 1110 Q696 1009 518 874 L872 438 Q887 488 891.5 520 Q896 552 899 637 Q902 722 902 742 L902 791 L1088 791 L1088 744 Q1088 678 1074 554.5 Q1060 431 990 292 L1228 0 L990 0 L881 130 ZM421 992 Q522 1063 581 1147.5 Q640 1232 640 1300 Q640 1365 598.5 1411.5 Q557 1458 469 1458 Q393 1458 345 1402 Q297 1346 297 1265 Q297 1220 309 1173.5 Q321 1127 399 1022 Q406 1012 421 992 ZM778 254 L373 752 Q183 588 183 398 Q183 268 270 188 Q357 108 481 108 Q547 108 614 131 Q681 154 778 254 Z" /><glyph glyph-name="quotesingle" unicode="&#39;" d="M683 993 L549 993 L444 1614 L785 1614 L683 993 Z" /><glyph glyph-name="parenleft" unicode="(" d="M1072 -372 Q795 -355 605 -215.5 Q415 -76 301.5 161 Q188 398 188 636 Q188 874 301.5 1111 Q415 1348 605 1487.5 Q795 1627 1072 1645 L1072 1489 Q863 1470 712.5 1348.5 Q562 1227 476 1039 Q390 851 390 636 Q390 421 476 233 Q562 45 712.5 -76 Q863 -197 1072 -217 L1072 -372 Z" /><glyph glyph-name="parenright" unicode=")" d="M157 1645 Q434 1627 624 1487.5 Q814 1348 927.5 1111 Q1041 874 1041 636 Q1041 398 927.5 161 Q814 -76 624 -215.5 Q434 -355 157 -372 L157 -217 Q366 -197 516.5 -76 Q667 45 753.5 233 Q840 421 840 636 Q840 851 753.5 1039 Q667 1227 516.5 1348.5 Q366 1470 157 1489 L157 1645 Z" /><glyph glyph-name="comma" unicode="," d="M424 -434 L424 -310 Q496 -291 533.5 -255.5 Q571 -220 593.5 -165.5 Q616 -111 616 -34 Q523 -34 479 18.5 Q435 71 435 131 Q435 200 484 247.5 Q533 295 598 295 Q682 295 743 222.5 Q804 150 804 24 Q804 -86 756 -183.5 Q708 -281 625.5 -350 Q543 -419 424 -434 Z" /><glyph glyph-name="hyphen" unicode="-­" d="M227 551 L227 706 L1003 706 L1003 551 L227 551 Z" /><glyph glyph-name="period" unicode="." d="M614 -47 Q547 -47 499 1 Q451 49 451 116 Q451 184 499.5 231.5 Q548 279 614 279 Q680 279 728.5 231.5 Q777 184 777 116 Q777 49 729 1 Q681 -47 614 -47 Z" /><glyph glyph-name="slash" unicode="/" d="M216 -47 L33 -47 L1020 1598 L1197 1598 L216 -47 Z" /><glyph glyph-name="zero" unicode="0" d="M614 1598 Q879 1598 1018 1375.5 Q1157 1153 1157 776 Q1157 398 1018 175.5 Q879 -47 614 -47 Q350 -47 210.5 175.5 Q71 398 71 776 Q71 1153 210.5 1375.5 Q350 1598 614 1598 ZM311 444 L848 1285 Q797 1378 737.5 1410.5 Q678 1443 614 1443 Q447 1443 360 1257.5 Q273 1072 273 787 Q273 722 277 647 Q281 572 311 444 ZM915 1100 L382 254 Q425 181 481 144.5 Q537 108 606 108 Q796 108 876 320.5 Q956 533 956 792 Q956 952 915 1100 Z" /><glyph glyph-name="one" unicode="1" d="M568 155 L568 1353 Q484 1286 405 1239 Q326 1192 188 1143 L188 1311 Q407 1404 568 1552 L754 1552 L754 155 L1127 155 L1127 0 L188 0 L188 155 L568 155 Z" /><glyph glyph-name="two" unicode="2" d="M1088 0 L149 0 L149 171 Q149 237 176 312.5 Q203 388 279 482 Q355 576 440 663 L546 771 Q578 804 686 924 Q794 1044 828.5 1108 Q863 1172 863 1234 Q863 1334 783 1388.5 Q703 1443 603 1443 Q546 1443 475.5 1430 Q405 1417 352 1399.5 Q299 1382 180 1328 L180 1493 Q306 1553 432.5 1575.5 Q559 1598 641 1598 Q762 1598 863.5 1558.5 Q965 1519 1014.5 1436 Q1064 1353 1064 1259 Q1064 1154 1000.5 1044 Q937 934 761 761 L647 648 L551 554 Q460 462 404 376 Q348 290 342 171 L1088 171 L1088 0 Z" /><glyph glyph-name="three" unicode="3" d="M145 28 L145 224 Q374 108 542 108 Q696 108 796.5 201.5 Q897 295 897 442 Q897 590 786.5 683 Q676 776 411 776 L308 776 L308 931 L451 931 Q646 931 733 1018.5 Q820 1106 820 1213 Q820 1310 749 1376.5 Q678 1443 531 1443 Q366 1443 176 1350 L176 1527 Q366 1598 524 1598 Q807 1598 914.5 1486.5 Q1022 1375 1022 1232 Q1022 1126 965 1033 Q908 940 755 867 Q890 827 959 769 Q1028 711 1063.5 632 Q1099 553 1099 455 Q1099 237 937.5 95 Q776 -47 520 -47 Q446 -47 358.5 -36 Q271 -25 145 28 Z" /><glyph glyph-name="four" unicode="4" d="M707 0 L707 434 L48 434 L48 590 L707 1552 L894 1552 L894 590 L1181 590 L1181 434 L894 434 L894 0 L707 0 ZM707 590 L707 1270 L246 590 L707 590 Z" /><glyph glyph-name="five" unicode="5" d="M188 807 L188 1552 L1057 1552 L1057 1373 L374 1373 L374 993 L406 993 Q741 993 922 853 Q1103 713 1103 476 Q1103 326 1030 207 Q957 88 824 20.5 Q691 -47 541 -47 Q391 -47 157 26 L157 229 Q242 183 347 153.5 Q452 124 541 124 Q630 124 715 167 Q800 210 847 292.5 Q894 375 894 461 Q894 606 765.5 706.5 Q637 807 309 807 L188 807 Z" /><glyph glyph-name="eight" unicode="8" d="M459 837 L425 862 Q354 912 286 1009.5 Q218 1107 218 1224 Q218 1379 340 1488.5 Q462 1598 650 1598 Q765 1598 857 1556.5 Q949 1515 999 1434 Q1049 1353 1049 1257 Q1049 1191 1026 1129.5 Q1003 1068 957.5 1007.5 Q912 947 777 837 L861 770 Q1008 650 1059 563 Q1110 476 1110 368 Q1110 200 988 76.5 Q866 -47 622 -47 Q377 -47 255 68.5 Q133 184 133 355 Q133 610 459 837 ZM650 932 Q791 1039 826.5 1111 Q862 1183 862 1245 Q862 1320 796 1381.5 Q730 1443 626 1443 Q514 1443 455.5 1376 Q397 1309 397 1237 Q397 1167 446 1105 Q495 1043 603 966 L650 932 ZM599 738 Q335 535 335 358 Q335 253 422 181 Q509 109 628 109 Q737 109 823 178 Q909 247 909 350 Q909 451 804.5 555 Q700 659 659 691 L599 738 Z" /><glyph glyph-name="nine" unicode="9" d="M936 824 Q864 717 757.5 649.5 Q651 582 523 582 Q402 582 293.5 640.5 Q185 699 128 805 Q71 911 71 1051 Q71 1271 212.5 1434.5 Q354 1598 585 1598 Q857 1598 991.5 1370.5 Q1126 1143 1126 792 Q1126 404 955 178.5 Q784 -47 492 -47 Q335 -47 187 0 L187 187 Q353 109 500 109 Q708 109 822 300 Q936 491 936 784 L936 824 ZM571 1443 Q496 1443 420 1398.5 Q344 1354 300.5 1262 Q257 1170 257 1060 Q257 919 330.5 828 Q404 737 540 737 Q681 737 771.5 842.5 Q862 948 862 1098 Q862 1250 773.5 1346.5 Q685 1443 571 1443 Z" /><glyph glyph-name="colon" unicode=":" d="M614 -47 Q547 -47 499 1 Q451 49 451 116 Q451 184 499.5 231.5 Q548 279 614 279 Q680 279 728.5 231.5 Q777 184 777 116 Q777 49 729 1 Q681 -47 614 -47 ZM614 822 Q547 822 499 870 Q451 918 451 985 Q451 1053 499.5 1100.5 Q548 1148 614 1148 Q680 1148 728.5 1100.5 Q777 1053 777 985 Q777 918 729 870 Q681 822 614 822 Z" /><glyph glyph-name="semicolon" unicode=";" d="M424 -434 L424 -310 Q496 -291 533.5 -255.5 Q571 -220 593.5 -165.5 Q616 -111 616 -34 Q523 -34 479 18.5 Q435 71 435 131 Q435 200 484 247.5 Q533 295 598 295 Q682 295 743 222.5 Q804 150 804 24 Q804 -86 756 -183.5 Q708 -281 625.5 -350 Q543 -419 424 -434 ZM598 822 Q531 822 483 870 Q435 918 435 985 Q435 1053 483.5 1100.5 Q532 1148 598 1148 Q664 1148 712.5 1100.5 Q761 1053 761 985 Q761 918 713 870 Q665 822 598 822 Z" /><glyph glyph-name="less" unicode="&lt;" d="M71 543 L1157 1086 L1157 913 L415 544 L1157 171 L1157 0 L71 543 Z" /><glyph glyph-name="equal" unicode="=" d="M1157 791 L1157 636 L71 636 L71 791 L1157 791 ZM1157 442 L1157 287 L71 287 L71 442 L1157 442 Z" /><glyph glyph-name="greater" unicode="&gt;" d="M1157 543 L71 0 L71 173 L814 542 L71 915 L71 1086 L1157 543 Z" /><glyph glyph-name="question" unicode="?" d="M401 442 L401 477 Q401 560 415 615.5 Q429 671 468.5 730.5 Q508 790 587 874 L649 940 Q667 959 701 1002 L767 1085 Q851 1189 851 1265 Q851 1335 791 1389 Q731 1443 596 1443 Q509 1443 418.5 1419.5 Q328 1396 207 1328 L207 1508 Q392 1598 594 1598 Q818 1598 935.5 1506.5 Q1053 1415 1053 1269 Q1053 1125 901 970 L835 902 L757 821 L686 748 Q647 704 617 647 Q587 590 587 488 L587 442 L401 442 ZM503 -47 Q445 -47 402.5 -4.5 Q360 38 360 97 Q360 156 402.5 198 Q445 240 503 240 Q562 240 604.5 198.5 Q647 157 647 97 Q647 37 604 -5 Q561 -47 503 -47 Z" /><glyph glyph-name="at" unicode="@" d="M921 200 L921 43 Q837 -12 772 -29.5 Q707 -47 632 -47 Q424 -47 291.5 54.5 Q159 156 80.5 337.5 Q2 519 2 781 Q2 1145 169 1371.5 Q336 1598 620 1598 Q901 1598 1064.5 1398 Q1228 1198 1228 872 Q1228 728 1186 635.5 Q1144 543 1075 488.5 Q1006 434 908 434 Q832 434 784 467.5 Q736 501 712 622 Q684 557 626 495.5 Q568 434 469 434 Q366 434 298.5 527.5 Q231 621 231 757 Q231 924 327.5 1067 Q424 1210 676 1210 L867 1210 L867 772 Q867 685 873.5 648.5 Q880 612 900.5 593 Q921 574 945 574 Q984 574 1023.5 611.5 Q1063 649 1083.5 717.5 Q1104 786 1104 866 Q1104 1033 1043 1190.5 Q982 1348 862 1415 Q742 1482 611 1482 Q472 1482 366.5 1398.5 Q261 1315 193.5 1148 Q126 981 126 779 Q126 576 193 403 Q260 230 374 150 Q488 70 628 70 Q787 70 921 200 ZM712 809 L712 1078 L676 1078 Q558 1078 506 1041 Q454 1004 424 925 Q394 846 394 751 Q394 674 418 632 Q442 590 484 590 Q543 590 604.5 658.5 Q666 727 712 809 Z" /><glyph glyph-name="A" unicode="a" d="M227 0 L33 0 L511 1552 L716 1552 L1197 0 L984 0 L878 341 L332 341 L227 0 ZM380 496 L833 496 L646 1085 L602 1241 L563 1085 L380 496 Z" /><glyph glyph-name="B" unicode="b" d="M172 0 L172 1552 L475 1552 Q748 1552 840.5 1510.5 Q933 1469 979 1388 Q1025 1307 1025 1203 Q1025 1121 998 1047.5 Q971 974 918 913.5 Q865 853 764 799 Q949 725 1014.5 617 Q1080 509 1080 401 Q1080 298 1024.5 201 Q969 104 869 52 Q769 0 549 0 L172 0 ZM374 853 L586 853 Q689 896 736.5 943.5 Q784 991 807.5 1049.5 Q831 1108 831 1178 Q831 1288 766.5 1342 Q702 1396 515 1396 L374 1396 L374 853 ZM374 155 L565 155 Q725 155 801.5 230.5 Q878 306 878 412 Q878 490 836 555.5 Q794 621 706 659.5 Q618 698 430 698 L374 698 L374 155 Z" /><glyph glyph-name="C" unicode="c" d="M1088 18 Q914 -47 776 -47 Q594 -47 441 50.5 Q288 148 203 340.5 Q118 533 118 776 Q118 1017 202 1209 Q286 1401 439 1500 Q592 1599 776 1599 Q914 1599 1088 1534 L1088 1350 Q927 1443 768 1443 Q648 1443 548.5 1361 Q449 1279 388 1120.5 Q327 962 327 776 Q327 587 390 427 Q453 267 551 187.5 Q649 108 768 108 Q926 108 1088 201 L1088 18 Z" /><glyph glyph-name="D" unicode="d" d="M155 0 L155 1552 L523 1552 Q777 1552 900.5 1463.5 Q1024 1375 1086 1196 Q1148 1017 1148 772 Q1148 540 1082.5 364.5 Q1017 189 897 94.5 Q777 0 523 0 L155 0 ZM357 171 L492 171 Q697 171 784.5 244 Q872 317 909.5 446.5 Q947 576 947 804 Q947 1027 903 1147 Q859 1267 777 1331.5 Q695 1396 508 1396 L357 1396 L357 171 Z" /><glyph glyph-name="E" unicode="e" d="M1041 171 L1041 0 L203 0 L203 1552 L1025 1552 L1025 1396 L405 1396 L405 869 L963 869 L963 714 L405 714 L405 171 L1041 171 Z" /><glyph glyph-name="F" unicode="f" d="M227 0 L227 1552 L1080 1552 L1080 1396 L429 1396 L429 869 L1018 869 L1018 714 L429 714 L429 0 L227 0 Z" /><glyph glyph-name="G" unicode="g" d="M1088 1 Q924 -47 787 -47 Q593 -47 441.5 49 Q290 145 204 338.5 Q118 532 118 776 Q118 1017 202 1209 Q286 1401 439 1500 Q592 1599 775 1599 Q913 1599 1087 1534 L1087 1350 Q926 1443 767 1443 Q647 1443 547.5 1361 Q448 1279 387.5 1120.5 Q327 962 327 774 Q327 522 442 315 Q557 108 805 108 Q837 108 886 113 L886 613 L731 613 L731 768 L1088 768 L1088 1 Z" /><glyph glyph-name="H" unicode="h" d="M126 0 L126 1552 L328 1552 L328 884 L902 884 L902 1552 L1103 1552 L1103 0 L902 0 L902 729 L328 729 L328 0 L126 0 Z" /><glyph glyph-name="I" unicode="i" d="M172 0 L172 155 L513 155 L513 1396 L172 1396 L172 1552 L1056 1552 L1056 1396 L715 1396 L715 155 L1056 155 L1056 0 L172 0 Z" /><glyph glyph-name="J" unicode="j" d="M110 34 L110 224 Q328 109 475 109 Q552 109 615.5 139 Q679 169 716.5 239.5 Q754 310 754 541 L754 1396 L405 1396 L405 1552 L956 1552 L956 536 Q956 288 899.5 179 Q843 70 741 11.5 Q639 -47 480 -47 Q302 -47 110 34 Z" /><glyph glyph-name="M" unicode="m" d="M219 0 L56 0 L56 1552 L259 1552 L617 530 L975 1552 L1173 1552 L1173 0 L987 0 L987 989 L992 1125 L987 1125 L943 989 L703 310 L501 310 L258 989 L219 1125 L214 1125 L219 989 L219 0 Z" /><glyph glyph-name="O" unicode="o" d="M614 -47 Q350 -47 210.5 175.5 Q71 398 71 776 Q71 1153 210.5 1375.5 Q350 1598 614 1598 Q879 1598 1018 1375.5 Q1157 1153 1157 776 Q1157 398 1018 175.5 Q879 -47 614 -47 ZM614 109 Q760 109 857.5 274.5 Q955 440 955 776 Q955 1112 857.5 1277.5 Q760 1443 614 1443 Q468 1443 370.5 1277.5 Q273 1112 273 776 Q273 440 370.5 274.5 Q468 109 614 109 Z" /><glyph glyph-name="P" unicode="p" d="M378 566 L378 0 L176 0 L176 1552 L562 1552 Q800 1552 909 1498.5 Q1018 1445 1076 1342 Q1134 1239 1134 1112 Q1134 963 1056 834 Q978 705 838.5 635.5 Q699 566 460 566 L378 566 ZM378 721 L465 721 Q652 721 743 769.5 Q834 818 883 909 Q932 1000 932 1106 Q932 1240 844.5 1318 Q757 1396 499 1396 L378 1396 L378 721 Z" /><glyph glyph-name="Q" unicode="q" d="M746 -29 Q816 -145 871 -190 Q926 -235 1014 -257 Q1102 -279 1209 -279 L1227 -279 L1227 -434 L1180 -434 Q987 -434 899 -394 Q811 -354 733 -271 Q655 -188 591 -45 Q408 -25 301.5 71 Q195 167 133 368 Q71 569 71 800 Q71 1138 206 1368 Q341 1598 614 1598 Q878 1598 1017.5 1376 Q1157 1154 1157 775 Q1157 595 1120.5 430.5 Q1084 266 994.5 141.5 Q905 17 746 -29 ZM614 1443 Q468 1443 370.5 1277.5 Q273 1112 273 776 Q273 440 370.5 274.5 Q468 109 614 109 Q760 109 857.5 274.5 Q955 440 955 776 Q955 1112 857.5 1277.5 Q760 1443 614 1443 Z" /><glyph glyph-name="S" unicode="s" d="M157 33 L157 223 Q397 109 593 109 Q675 109 750 140.5 Q825 172 863.5 231 Q902 290 902 359 Q902 440 849 510.5 Q796 581 650 666 L548 725 L445 784 Q173 945 173 1184 Q173 1359 294.5 1478.5 Q416 1598 674 1598 Q840 1598 995 1550 L995 1377 Q824 1443 662 1443 Q533 1443 453.5 1375 Q374 1307 374 1211 Q374 1116 435 1053 Q496 990 591 937 L669 890 L766 831 L848 783 Q1103 627 1103 391 Q1103 211 972 82 Q841 -47 552 -47 Q460 -47 376.5 -31.5 Q293 -16 157 33 Z" /><glyph glyph-name="T" unicode="t" d="M513 0 L513 1381 L48 1381 L48 1552 L1181 1552 L1181 1381 L715 1381 L715 0 L513 0 Z" /><glyph glyph-name="U" unicode="u" d="M126 1552 L328 1552 L328 533 Q328 332 361.5 258.5 Q395 185 464.5 146.5 Q534 108 619 108 Q709 108 779.5 149.5 Q850 191 883.5 279.5 Q917 368 917 612 L917 1552 L1103 1552 L1103 539 Q1103 322 1038.5 199.5 Q974 77 870 15 Q766 -47 608 -47 Q462 -47 351 7 Q240 61 183 169 Q126 277 126 559 L126 1552 Z" /><glyph glyph-name="X" unicode="x" d="M258 0 L48 0 L502 811 L92 1552 L321 1552 L618 1017 L922 1552 L1133 1552 L723 826 L1181 0 L948 0 L607 619 L258 0 Z" /><glyph glyph-name="backslash" unicode="\" d="M1014 -47 L33 1598 L210 1598 L1197 -47 L1014 -47 Z" /><glyph glyph-name="underscore" unicode="_" d="M71 -155 L71 0 L1157 0 L1157 -155 L71 -155 Z" /><glyph glyph-name="a" unicode="a" d="M889 251 Q804 111 684.5 40 Q565 -31 465 -31 Q325 -31 213.5 90 Q102 211 102 457 Q102 651 176 803.5 Q250 956 374 1044.5 Q498 1133 681 1133 Q734 1133 841 1122 Q857 1120 889 1117 L1076 1117 L1076 328 Q1076 126 1118 0 L924 0 Q902 92 889 251 ZM889 472 L889 951 Q790 977 705 977 Q533 977 418.5 844 Q304 711 304 482 Q304 316 366.5 231.5 Q429 147 509 147 Q596 147 701 235 Q806 323 889 472 Z" /><glyph glyph-name="b" unicode="b" d="M327 866 Q413 1006 532 1077 Q651 1148 751 1148 Q891 1148 1003 1027 Q1115 906 1115 660 Q1115 466 1040.5 313.5 Q966 161 842 72.5 Q718 -16 535 -16 Q483 -16 375 -5 Q359 -3 327 0 L141 0 L141 1614 L327 1614 L327 866 ZM327 645 L327 166 Q428 140 513 140 Q682 140 797.5 272.5 Q913 405 913 635 Q913 802 850 886 Q787 970 707 970 Q620 970 515.5 882 Q411 794 327 645 Z" /><glyph glyph-name="c" unicode="c" d="M1095 32 Q908 -31 739 -31 Q571 -31 440.5 46.5 Q310 124 237 256.5 Q164 389 164 558 Q164 812 329.5 980 Q495 1148 729 1148 Q902 1148 1095 1083 L1095 904 Q900 993 746 993 Q644 993 554 942.5 Q464 892 415 785 Q366 678 366 565 Q366 414 460.5 277 Q555 140 757 140 Q818 140 877 148.5 Q936 157 1095 211 L1095 32 Z" /><glyph glyph-name="d" unicode="d" d="M901 251 Q816 111 696.5 40 Q577 -31 477 -31 Q337 -31 225.5 90 Q114 211 114 457 Q114 651 188 803.5 Q262 956 386 1044.5 Q510 1133 693 1133 Q746 1133 853 1122 Q869 1120 901 1117 L901 1614 L1088 1614 L1088 0 L901 0 L901 251 ZM901 472 L901 951 Q802 977 717 977 Q545 977 430.5 844 Q316 711 316 482 Q316 316 378.5 231.5 Q441 147 521 147 Q608 147 713 235 Q818 323 901 472 Z" /><glyph glyph-name="e" unicode="e" d="M1084 74 Q861 -32 662 -32 Q511 -32 392 43 Q273 118 201.5 257.5 Q130 397 130 556 Q130 709 198 850 Q266 991 388 1069.5 Q510 1148 660 1148 Q859 1148 979.5 1006 Q1100 864 1100 568 L1100 528 L330 528 Q330 412 378.5 316 Q427 220 506 172 Q585 124 686 124 Q866 124 1084 244 L1084 74 ZM341 667 L898 667 L898 694 Q898 831 831 912 Q764 993 652 993 Q539 993 456.5 910.5 Q374 828 341 667 Z" /><glyph glyph-name="f" unicode="f" d="M415 0 L415 869 L167 869 L167 1024 L415 1024 L415 1076 Q415 1297 465 1403 Q515 1509 619.5 1577 Q724 1645 896 1645 Q1026 1645 1160 1618 L1160 1441 Q1015 1489 903 1489 Q814 1489 746 1456 Q678 1423 639.5 1348.5 Q601 1274 601 1096 L601 1024 L1044 1024 L1044 869 L601 869 L601 0 L415 0 Z" /><glyph glyph-name="g" unicode="g" d="M901 251 Q816 111 696.5 40 Q577 -31 477 -31 Q337 -31 225.5 90 Q114 211 114 457 Q114 651 188 803.5 Q262 956 386 1044.5 Q510 1133 693 1133 Q746 1133 853 1122 Q869 1120 901 1117 L1088 1117 L1088 327 Q1088 45 1080.5 -17.5 Q1073 -80 1056 -144 Q1016 -293 873.5 -379 Q731 -465 529 -465 Q326 -465 118 -361 L118 -173 Q197 -227 312.5 -268.5 Q428 -310 536 -310 Q621 -310 697 -283 Q773 -256 820 -205 Q867 -154 884 -86.5 Q901 -19 901 93 L901 251 ZM901 472 L901 951 Q802 977 717 977 Q545 977 430.5 844 Q316 711 316 482 Q316 316 378.5 231.5 Q441 147 521 147 Q608 147 713 235 Q818 323 901 472 Z" /><glyph glyph-name="h" unicode="h" d="M155 0 L155 1614 L341 1614 L341 873 Q421 1002 534 1075 Q647 1148 760 1148 Q855 1148 933.5 1099.5 Q1012 1051 1043 982 Q1068 929 1077 869.5 Q1086 810 1086 624 L1086 0 L900 0 L900 647 Q900 808 884.5 859.5 Q869 911 827.5 944 Q786 977 737 977 Q639 977 526.5 884 Q414 791 341 651 L341 0 L155 0 Z" /><glyph glyph-name="i" unicode="i" d="M468 0 L468 962 L158 962 L158 1117 L654 1117 L654 155 L965 155 L965 0 L468 0 ZM437 1520 Q437 1583 480 1614 Q523 1645 561 1645 Q600 1645 643 1614 Q686 1583 686 1520 Q686 1458 643 1427 Q600 1396 561 1396 Q523 1396 480 1427 Q437 1458 437 1520 Z" /><glyph glyph-name="j" unicode="j" d="M172 -438 L172 -264 Q328 -310 435 -310 Q528 -310 593 -277.5 Q658 -245 694.5 -168 Q731 -91 731 100 L731 962 L257 962 L257 1117 L917 1117 L917 135 Q917 -149 850 -259.5 Q783 -370 688 -418 Q593 -466 428 -466 Q309 -466 172 -438 ZM700 1520 Q700 1583 742.5 1614 Q785 1645 824 1645 Q863 1645 905.5 1614 Q948 1583 948 1520 Q948 1458 905.5 1427 Q863 1396 824 1396 Q785 1396 742.5 1427 Q700 1458 700 1520 Z" /><glyph glyph-name="k" unicode="k" d="M205 0 L205 1614 L391 1614 L391 600 L928 1117 L1176 1117 L640 600 L1190 0 L934 0 L391 600 L391 0 L205 0 Z" /><glyph glyph-name="l" unicode="l" d="M455 0 L455 1458 L121 1458 L121 1614 L641 1614 L641 155 L990 155 L990 0 L455 0 Z" /><glyph glyph-name="m" unicode="m" d="M71 0 L71 1117 L234 1117 L234 861 Q311 1024 377.5 1086 Q444 1148 512 1148 Q593 1148 642.5 1084.5 Q692 1021 692 904 L692 844 Q725 946 771.5 1009.5 Q818 1073 868 1110.5 Q918 1148 983 1148 Q1055 1148 1106 1087 Q1157 1026 1157 844 L1157 0 L994 0 L994 763 Q994 857 988 891.5 Q982 926 964 944 Q946 962 925 962 Q873 962 813.5 882.5 Q754 803 692 619 L692 0 L536 0 L536 762 Q536 910 507 936 Q478 962 455 962 Q404 962 345.5 873 Q287 784 234 645 L234 0 L71 0 Z" /><glyph glyph-name="n" unicode="n" d="M155 0 L155 1117 L341 1117 L341 873 Q421 1002 534 1075 Q647 1148 760 1148 Q859 1148 940 1095.5 Q1021 1043 1053.5 958 Q1086 873 1086 624 L1086 0 L900 0 L900 647 Q900 808 884.5 859.5 Q869 911 827.5 944 Q786 977 737 977 Q639 977 526.5 884 Q414 791 341 651 L341 0 L155 0 Z" /><glyph glyph-name="o" unicode="o" d="M615 -31 Q375 -31 231 136.5 Q87 304 87 559 Q87 814 231 981 Q375 1148 615 1148 Q854 1148 998 981 Q1142 814 1142 559 Q1142 304 998 136.5 Q854 -31 615 -31 ZM615 124 Q764 124 852 240 Q940 356 940 559 Q940 761 852 877 Q764 993 615 993 Q465 993 377 877 Q289 761 289 559 Q289 356 377 240 Q465 124 615 124 Z" /><glyph glyph-name="p" unicode="p" d="M327 866 Q413 1006 532 1077 Q651 1148 751 1148 Q891 1148 1003 1027 Q1115 906 1115 660 Q1115 466 1040.5 313.5 Q966 161 842 72.5 Q718 -16 535 -16 Q483 -16 375 -5 Q359 -3 327 0 L327 -434 L141 -434 L141 1117 L327 1117 L327 866 ZM327 645 L327 166 Q428 140 513 140 Q682 140 797.5 272.5 Q913 405 913 635 Q913 802 850 886 Q787 970 707 970 Q620 970 515.5 882 Q411 794 327 645 Z" /><glyph glyph-name="q" unicode="q" d="M901 251 Q816 111 696.5 40 Q577 -31 477 -31 Q337 -31 225.5 90 Q114 211 114 457 Q114 651 188 803.5 Q262 956 386 1044.5 Q510 1133 693 1133 Q746 1133 853 1122 Q869 1120 901 1117 L1088 1117 L1088 -434 L901 -434 L901 251 ZM901 472 L901 951 Q802 977 717 977 Q545 977 430.5 844 Q316 711 316 482 Q316 316 378.5 231.5 Q441 147 521 147 Q608 147 713 235 Q818 323 901 472 Z" /><glyph glyph-name="r" unicode="r" d="M250 0 L250 1117 L436 1117 L436 873 Q523 1011 635.5 1079.5 Q748 1148 886 1148 Q987 1148 1088 1117 L1088 714 L909 714 L909 969 Q862 977 835 977 Q731 977 631 895 Q531 813 436 649 L436 0 L250 0 Z" /><glyph glyph-name="s" unicode="s" d="M168 59 L168 256 Q280 183 405 153.5 Q530 124 617 124 Q758 124 820 169.5 Q882 215 882 283 Q882 328 853 360 Q824 392 709 439 L645 465 L516 516 Q308 597 254 666 Q199 734 199 832 Q199 970 305.5 1059 Q412 1148 651 1148 Q830 1148 990 1096 L990 927 Q806 993 644 993 Q526 993 459.5 951.5 Q393 910 393 848 Q393 788 451 752 Q508 716 637 669 L763 623 Q936 560 1006 486 Q1076 412 1076 301 Q1076 156 964.5 62.5 Q853 -31 608 -31 Q394 -31 168 59 Z" /><glyph glyph-name="t" unicode="t" d="M1089 45 Q958 -10 899 -20.5 Q840 -31 785 -31 Q668 -31 571 14 Q474 59 424.5 147 Q375 235 375 419 L375 869 L96 869 L96 1024 L375 1024 L375 1474 L561 1474 L561 1024 L1058 1024 L1058 869 L561 869 L561 422 Q561 287 593 231.5 Q625 176 678.5 150 Q732 124 805 124 Q940 124 1089 209 L1089 45 Z" /><glyph glyph-name="u" unicode="u" d="M1074 1117 L1074 0 L888 0 L888 245 Q798 107 688 38 Q578 -31 468 -31 Q370 -31 288.5 21.5 Q207 74 175 159.5 Q143 245 143 493 L143 1117 L329 1117 L329 470 Q329 309 344.5 257.5 Q360 206 401.5 173 Q443 140 491 140 Q589 140 701.5 232.5 Q814 325 888 466 L888 1117 L1074 1117 Z" /><glyph glyph-name="v" unicode="v" d="M518 0 L33 1117 L237 1117 L620 233 L1011 1117 L1197 1117 L708 0 L518 0 Z" /><glyph glyph-name="w" unicode="w" d="M202 0 L20 1117 L193 1117 L299 437 L327 279 L354 437 L532 1117 L699 1117 L900 437 L935 279 L958 437 L1065 1117 L1208 1117 L1027 0 L853 0 L639 719 L605 877 L600 877 L569 720 L383 0 L202 0 Z" /><glyph glyph-name="x" unicode="x" d="M271 0 L56 0 L495 585 L85 1117 L323 1117 L614 742 L897 1117 L1108 1117 L720 603 L1181 0 L942 0 L602 445 L271 0 Z" /><glyph glyph-name="y" unicode="y" d="M566 45 L50 1117 L255 1117 L666 279 L1010 1117 L1197 1117 L764 79 Q627 -250 503.5 -358 Q380 -466 184 -466 Q99 -466 32 -451 L32 -287 Q109 -311 179 -311 Q269 -311 339 -276 Q409 -241 467 -152 Q525 -63 549 2 L566 45 Z" /><glyph glyph-name="braceleft" unicode="{" d="M547 636 Q640 587 683.5 540 Q727 493 748.5 443.5 Q770 394 770 330 Q770 273 750 181 L725 67 Q705 -26 705 -71 Q705 -132 752.5 -174.5 Q800 -217 948 -217 L1103 -217 L1103 -372 L946 -372 Q672 -372 593 -284 Q514 -196 514 -85 Q514 -26 529 42 L547 122 L564 209 L576 262 Q583 299 583 334 Q583 427 520.5 493 Q458 559 300 559 L211 559 L211 714 L300 714 Q456 714 519.5 779 Q583 844 583 941 Q583 977 576 1011 L564 1063 L547 1150 L529 1230 Q514 1299 514 1358 Q514 1468 593 1556.5 Q672 1645 946 1645 L1103 1645 L1103 1489 L948 1489 Q801 1489 753 1446.5 Q705 1404 705 1342 Q705 1298 725 1205 L750 1091 Q770 999 770 942 Q770 878 748.5 828.5 Q727 779 683.5 732 Q640 685 547 636 Z" /><glyph glyph-name="bar" unicode="|" d="M533 -47 L533 1598 L696 1598 L696 -47 L533 -47 Z" /><glyph glyph-name="braceright" unicode="}" d="M682 636 Q589 685 545.5 732 Q502 779 481 828.5 Q460 878 460 942 Q460 999 479 1091 L504 1205 Q524 1298 524 1343 Q524 1404 476.5 1446.5 Q429 1489 281 1489 L126 1489 L126 1645 L283 1645 Q557 1645 636.5 1556.5 Q716 1468 716 1358 Q716 1298 700 1230 L682 1150 L665 1063 L653 1011 Q646 973 646 938 Q646 846 708.5 780 Q771 714 929 714 L1018 714 L1018 559 L929 559 Q773 559 709.5 493.5 Q646 428 646 331 Q646 296 653 262 L665 209 L682 122 L700 42 Q716 -27 716 -86 Q716 -197 636.5 -284.5 Q557 -372 283 -372 L126 -372 L126 -217 L281 -217 Q429 -217 476.5 -174.5 Q524 -132 524 -70 Q524 -26 504 67 L479 181 Q460 273 460 330 Q460 394 481 443.5 Q502 493 545.5 540 Q589 587 682 636 Z" /><glyph glyph-name="copyright" unicode="©" d="M615 -47 Q421 -47 292 54 Q163 155 82.5 345 Q2 535 2 776 Q2 1008 76.5 1194 Q151 1380 282.5 1489 Q414 1598 615 1598 Q809 1598 938.5 1496 Q1068 1394 1148 1205 Q1228 1016 1228 776 Q1228 535 1147.5 345 Q1067 155 938 54 Q809 -47 615 -47 ZM615 78 Q743 78 855 158.5 Q967 239 1035.5 411 Q1104 583 1104 776 Q1104 968 1035 1141 Q966 1314 854 1394 Q742 1474 615 1474 Q485 1474 371.5 1390.5 Q258 1307 192 1135.5 Q126 964 126 776 Q126 581 196 407 Q266 233 377 155.5 Q488 78 615 78 ZM894 433 L894 281 Q804 248 680 248 Q549 248 447.5 318.5 Q346 389 286.5 508.5 Q227 628 227 775 Q227 921 284.5 1044 Q342 1167 435.5 1235 Q529 1303 665 1303 Q767 1303 894 1271 L894 1112 Q856 1124 811 1132 Q766 1140 731.5 1144.5 Q697 1149 674 1149 Q547 1149 472.5 1046 Q398 943 398 773 Q398 586 485.5 487 Q573 388 700 388 Q782 388 894 433 Z" /><glyph glyph-name="guillemotright" unicode="»" d="M602 636 L602 481 L219 62 L106 171 L418 559 L106 957 L219 1055 L602 636 ZM1076 636 L1076 481 L692 62 L579 171 L891 559 L579 957 L692 1055 L1076 636 Z" /></font>
</defs>
</svg>
